<svg xmlns="http://www.w3.org/2000/svg" viewBox="0 0 96 96" role="img" aria-labelledby="logoTitle logoDesc">
  <title id="logoTitle">Hazy Daisy Jewelry logo</title>
  <desc id="logoDesc">A playful coral and cream daisy with a golden center and green leaf.</desc>
  <defs>
    <filter id="shadow" x="-20%" y="-20%" width="150%" height="150%">
      <feDropShadow dx="2.5" dy="3" stdDeviation="0" flood-color="#28232d"/>
    </filter>
  </defs>
  <path d="M67 67c8 2 15 8 18 17-10 1-19-3-23-11" fill="#71c8bc" stroke="#28232d" stroke-width="2.5" stroke-linejoin="round"/>
  <g filter="url(#shadow)" stroke="#28232d" stroke-width="2.4">
    <ellipse cx="48" cy="22" rx="13" ry="20" fill="#fff8ef"/>
    <ellipse cx="70.5" cy="31.5" rx="13" ry="20" fill="#f3a6ad" transform="rotate(48 70.5 31.5)"/>
    <ellipse cx="73" cy="57" rx="13" ry="20" fill="#fff8ef" transform="rotate(96 73 57)"/>
    <ellipse cx="53" cy="73" rx="13" ry="20" fill="#ef765f" transform="rotate(145 53 73)"/>
    <ellipse cx="28" cy="65" rx="13" ry="20" fill="#fff8ef" transform="rotate(-155 28 65)"/>
    <ellipse cx="23" cy="39" rx="13" ry="20" fill="#f3a6ad" transform="rotate(-102 23 39)"/>
  </g>
  <circle cx="48" cy="48" r="15" fill="#f6c85f" stroke="#28232d" stroke-width="2.7"/>
  <circle cx="43" cy="43" r="3.6" fill="#fff8ef" opacity=".82"/>
  <path d="M83 13l1.8 5.2L90 20l-5.2 1.8L83 27l-1.8-5.2L76 20l5.2-1.8L83 13Z" fill="#a994d6" stroke="#28232d" stroke-width="1.7" stroke-linejoin="round"/>
</svg>
